<svg id="Layer_1" data-name="Layer 1" xmlns="http://www.w3.org/2000/svg" viewBox="0 0 122 31"><defs><style>.cls-1{fill:#fff;}</style></defs><title>white-logo</title><path class="cls-1" d="M18.09,7.76l2.5-4.32a.74.74,0,0,1,.94-.31,13,13,0,0,1,5.31,19.36.49.49,0,0,1-.83,0L18.09,8.74a1,1,0,0,1,0-1M13.19,17h6.06a.24.24,0,0,0,.21-.37l-3-5.25a.24.24,0,0,0-.43,0l-3,5.25a.25.25,0,0,0,.22.37m-3.33-.5L17.78,2.79a.5.5,0,0,0-.39-.74c-.38,0-.78,0-1.17,0a13,13,0,0,0-13,13,11.9,11.9,0,0,0,.07,1.34A.73.73,0,0,0,4,17H9a1,1,0,0,0,.85-.5M20.7,19.75H4.87a.5.5,0,0,0-.45.71,13,13,0,0,0,19.42,5.07.73.73,0,0,0,.2-1l-2.49-4.31a1,1,0,0,0-.85-.5"/><path class="cls-1" d="M53.77,5.23H57.5a.15.15,0,0,1,.15.15v8.76l5.5-8.81a.21.21,0,0,1,.17-.1h4.53a.11.11,0,0,1,.09.16L61.8,14.28l6.94,10.48h-5a.18.18,0,0,1-.17-.1l-5.87-10.1V24.62a.15.15,0,0,1-.15.14H53.77a.14.14,0,0,1-.14-.14V5.38a.15.15,0,0,1,.14-.15"/><path class="cls-1" d="M118.06,5.38V24.62a.15.15,0,0,1-.15.14h-3.72a.14.14,0,0,1-.15-.14v-8H107.5v8a.15.15,0,0,1-.15.14h-3.64a.15.15,0,0,1-.15-.14V5.38a.15.15,0,0,1,.15-.15h3.64a.15.15,0,0,1,.15.15v8H114v-8a.15.15,0,0,1,.15-.15h3.72a.15.15,0,0,1,.15.15"/><path class="cls-1" d="M50.81,24.64,44.75,5.34a.15.15,0,0,0-.15-.11h-4a.2.2,0,0,0-.18.13l-6.3,19.27a.09.09,0,0,0,.09.13H38a.2.2,0,0,0,.19-.14l1.09-3.72h6.21l1.07,3.72a.19.19,0,0,0,.19.14h3.93a.09.09,0,0,0,.09-.12m-10.55-7c.66-2.25,1.24-4.22,1.29-4.41.36-1.45.92-3.75.92-3.75s.59,2.55.79,3.45c.05.25.65,2.35,1.33,4.71Z"/><path class="cls-1" d="M84.94,24.64,78.87,5.34a.14.14,0,0,0-.14-.11h-4a.2.2,0,0,0-.18.13L68.26,24.63a.1.1,0,0,0,.1.13h3.81a.18.18,0,0,0,.18-.14c.14-.45.58-1.95,1.1-3.72h6.2c.52,1.78.95,3.27,1.08,3.72a.19.19,0,0,0,.19.14h3.92a.1.1,0,0,0,.1-.12m-10.55-7c.66-2.25,1.24-4.22,1.29-4.41.36-1.45.92-3.75.92-3.75s.59,2.55.78,3.45c.06.25.66,2.35,1.34,4.71Z"/><path class="cls-1" d="M100,18.72c0,4-3.23,6.62-8.12,6.62a14.11,14.11,0,0,1-5.55-1.2.14.14,0,0,1-.06-.22l1.83-2.66a.11.11,0,0,1,.12,0,9.51,9.51,0,0,0,3.83.83c2.26,0,3.45-.93,3.45-2.69,0-1.27-.82-2.09-2.58-2.55l-2.18-.59c-1.95-.54-3.17-1.3-3.87-2.49a5.68,5.68,0,0,1-.82-3c0-3.6,2.88-6.09,7-6.09a11.66,11.66,0,0,1,6.45,1.9.15.15,0,0,1,0,.2L97.84,9.39a.11.11,0,0,1-.13,0A8.39,8.39,0,0,0,93.21,8c-1.62,0-2.75.94-2.75,2.27,0,1,.54,1.53,2.18,2l2.38.65c3.22.88,5,2.94,5,5.86"/></svg>